<svg xmlns="http://www.w3.org/2000/svg" xmlns:xlink="http://www.w3.org/1999/xlink"
    viewBox="0 0 24 24" preserveAspectRatio="xMidYMid meet">
    <defs>
        <mask id="__lottie_element_80">
            <rect fill="#ffffff" width="600" height="600"
                transform="matrix(0.9615384936332703,0,0,0.9615384936332703,211.53846740722656,211.53846740722656)"></rect>
            <path fill="#000000" clip-rule="nonzero"
                d=" M681.219970703125,212.79600524902344 C681.219970703125,212.79600524902344 215.69700622558594,681.75 215.69700622558594,681.75 C215.69700622558594,681.75 151.75999450683594,749.2319946289062 201.13699340820312,798.8619995117188 C255,853 319.67999267578125,785.0560302734375 319.67999267578125,785.0560302734375 C319.67999267578125,785.0560302734375 785.2030029296875,316.10198974609375 785.2030029296875,316.10198974609375 C785.2030029296875,316.10198974609375 868,234 816.2150268554688,184.4459991455078 C764.781005859375,135.22799682617188 681.219970703125,212.79600524902344 681.219970703125,212.79600524902344"
                fill-opacity="1"></path>
        </mask>
    </defs>
    <g>
        <g
            transform="matrix(0.03999999910593033,0,0,0.03999999910593033,0,0)">
            <g clip-path="url(#__lottie_element_79)"
                transform="matrix(1.0399999618530273,0,0,1.0399999618530273,-220,-220)">
                <g mask="url(#__lottie_element_80)">
                    <g clip-path="url(#__lottie_element_90)" transform="matrix(1,0,0,1,0,0)">
                        <g transform="matrix(25,0,0,25,200,200)">
                            <g transform="matrix(1,0,0,1,12,12.288000106811523)">
                                <path fill="currentColor" fill-opacity="1"
                                    d=" M-8,-0.2879999876022339 C-8,-4.705999851226807 -4.418000221252441,-8.288000106811523 0,-8.288000106811523 C4.418000221252441,-8.288000106811523 8,-4.705999851226807 8,-0.2879999876022339 C8,0.4050000011920929 7.953999996185303,1.0720000267028809 7.854000091552734,1.7120000123977661 C7.854000091552734,1.7120000123977661 6,1.7120000123977661 6,1.7120000123977661 C5.056000232696533,1.7120000123977661 4.166999816894531,2.1570000648498535 3.5999999046325684,2.9119999408721924 C3.5999999046325684,2.9119999408721924 1.6269999742507935,5.541999816894531 1.6269999742507935,5.541999816894531 C1.1579999923706055,6.168000221252441 1.0360000133514404,6.98799991607666 1.3040000200271606,7.7230000495910645 C1.8890000581741333,9.331999778747559 3.88700008392334,10.288000106811523 5.48199987411499,9.131999969482422 C8.83899974822998,6.701000213623047 10,3.380000114440918 10,-0.2879999876022339 C10,-5.810999870300293 5.5229997634887695,-10.288000106811523 0,-10.288000106811523 C-5.5229997634887695,-10.288000106811523 -10,-5.810999870300293 -10,-0.2879999876022339 C-10,3.380000114440918 -8.83899974822998,6.701000213623047 -5.48199987411499,9.131999969482422 C-3.88700008392334,10.288000106811523 -1.8890000581741333,9.331999778747559 -1.3040000200271606,7.7230000495910645 C-1.0360000133514404,6.98799991607666 -1.1579999923706055,6.168000221252441 -1.6269999742507935,5.541999816894531 C-1.6269999742507935,5.541999816894531 -3.5999999046325684,2.9119999408721924 -3.5999999046325684,2.9119999408721924 C-4.166999816894531,2.1570000648498535 -5.056000232696533,1.7120000123977661 -6,1.7120000123977661 C-6,1.7120000123977661 -7.854000091552734,1.7120000123977661 -7.854000091552734,1.7120000123977661 C-7.953999996185303,1.0720000267028809 -8,0.4050000011920929 -8,-0.2879999876022339z"></path>
                            </g>
                        </g>
                    </g>
                </g>
            </g>
            <g transform="matrix(1,0,0,1,-200,-200)">
                <g style="display: block;" transform="matrix(25,0,0,25,200,200)" opacity="1">
                    <g opacity="1" transform="matrix(1,0,0,1,12,12)">
                        <path stroke-linecap="round" stroke-linejoin="miter" fill-opacity="0"
                            stroke="currentColor"
                            stroke-width="2" d=" M-10,10 C-10,10 10,-10 10,-10"></path>
                    </g>
                </g>
            </g>
        </g>
    </g>
</svg>