<svg xmlns="http://www.w3.org/2000/svg" xmlns:xlink="http://www.w3.org/1999/xlink"
    viewBox="0 0 24 24" width="24" height="24" preserveAspectRatio="xMidYMid meet"
    style="width: 100%; height: 100%; transform: translate3d(0px, 0px, 0px); content-visibility: visible;">
    <defs>
        <mask id="__lottie_element_29">
            <rect fill="#ffffff" width="600" height="600" transform="matrix(1,0,0,1,200,200)"></rect>
        </mask>
    </defs>
    <g
        transform="matrix(0.03999999910593033,0,0,0.03999999910593033,0,0)">
        <g transform="matrix(1,0,0,1,-200,-200)">
            <g transform="matrix(-25,0,0,25,800,173)">
                <g transform="matrix(1,0,0,1,12,8.5)">
                    <path fill="currentColor"
                        d=" M-4,-1.4600000381469727 C-4,-3.6689999103546143 -2.2090001106262207,-5.460000038146973 0,-5.460000038146973 C2.2090001106262207,-5.460000038146973 4,-3.6689999103546143 4,-1.4600000381469727 C4,-1.4600000381469727 4,2.5 4,2.5 C4,4.709000110626221 2.2090001106262207,6.5 0,6.5 C-2.2090001106262207,6.5 -4,4.709000110626221 -4,2.5 C-4,2.5 -4,-1.4600000381469727 -4,-1.4600000381469727z"></path>
                </g>
                <g transform="matrix(1,0,0,1,12,14)">
                    <path stroke-linecap="round" stroke-linejoin="miter" fill-opacity="0"
                        stroke-miterlimit="4" stroke="currentColor"
                        stroke-width="2"
                        d=" M-7,-3 C-7,0.8659999966621399 -3.865999937057495,4 0,4 C3.865999937057495,4 7,0.8659999966621399 7,-3"></path>
                </g>
                <g transform="matrix(1,0,0,1,12,20)">
                    <path fill="currentColor"
                        d=" M-1,-2 C-1,-2.2760000228881836 -0.7760000228881836,-2.5 -0.5,-2.5 C-0.5,-2.5 0.5,-2.5 0.5,-2.5 C0.7760000228881836,-2.5 1,-2.2760000228881836 1,-2 C1,-2 1,2 1,2 C1,2.2760000228881836 0.7760000228881836,2.5 0.5,2.5 C0.5,2.5 -0.5,2.5 -0.5,2.5 C-0.7760000228881836,2.5 -1,2.2760000228881836 -1,2 C-1,2 -1,-2 -1,-2z"></path>
                </g>
                <g transform="matrix(1,0,0,1,12,22)">
                    <path fill="currentColor"
                        d=" M3,-1 C3.552000045776367,-1 4,-0.5519999861717224 4,0 C4,0.5519999861717224 3.552000045776367,1 3,1 C3,1 -3,1 -3,1 C-3.552000045776367,1 -4,0.5519999861717224 -4,0 C-4,-0.5519999861717224 -3.552000045776367,-1 -3,-1 C-3,-1 3,-1 3,-1z"></path>
                </g>
            </g>
        </g>
    </g>
</svg>